<svg width="7551" height="6902" xmlns="http://www.w3.org/2000/svg" xmlns:xlink="http://www.w3.org/1999/xlink" xml:space="preserve" overflow="hidden"><g transform="translate(-248 -138)"><rect x="251.5" y="751.5" width="7544" height="1597" stroke="#F2F2F2" stroke-width="6.875" stroke-miterlimit="8" fill="#F2F2F2"/><rect x="251.5" y="2504.5" width="7544" height="1715" stroke="#F2F2F2" stroke-width="6.875" stroke-miterlimit="8" fill="#F2F2F2"/><rect x="251.5" y="4378.5" width="7544" height="2658" stroke="#F2F2F2" stroke-width="6.875" stroke-miterlimit="8" fill="#F2F2F2"/><path d="M1323 920.001C1323 889.625 1347.62 865 1378 865L3315 865C3345.38 865 3370 889.625 3370 920.001L3370 1140C3370 1170.38 3345.38 1195 3315 1195L1378 1195C1347.62 1195 1323 1170.38 1323 1140Z" stroke="#156082" stroke-width="13.75" stroke-miterlimit="8" fill="#FFFFFF" fill-rule="evenodd"/><text font-family="Aptos,Aptos_MSFontService,sans-serif" font-weight="700" font-size="128" transform="matrix(1 0 0 1 1615.82 1071)">Download R and R Studio</text><rect x="790.5" y="141.5" width="3112" height="418" stroke="#042433" stroke-width="6.875" stroke-miterlimit="8" fill="#156082"/><text fill="#FFFFFF" font-family="Aptos,Aptos_MSFontService,sans-serif" font-weight="700" font-size="147" transform="matrix(1 0 0 1 907.003 397)">Research</text><text fill="#FFFFFF" font-family="Aptos,Aptos_MSFontService,sans-serif" font-weight="700" font-size="147" transform="matrix(1 0 0 1 1567.07 397)">question, motivations, objectives</text><path d="M495 1789.67C495 1744.01 532.012 1707 577.669 1707L2121.33 1707C2166.99 1707 2204 1744.01 2204 1789.67L2204 2120.33C2204 2165.99 2166.99 2203 2121.33 2203L577.669 2203C532.012 2203 495 2165.99 495 2120.33Z" stroke="#156082" stroke-width="13.75" stroke-miterlimit="8" fill="#FFFFFF" fill-rule="evenodd"/><text font-family="Aptos,Aptos_MSFontService,sans-serif" font-weight="700" font-size="128" transform="matrix(1 0 0 1 757.423 1842)">Get</text><text font-family="Aptos,Aptos_MSFontService,sans-serif" font-weight="700" font-size="128" transform="matrix(1 0 0 1 993.465 1842)">familiar</text><text font-family="Aptos,Aptos_MSFontService,sans-serif" font-weight="700" font-size="128" transform="matrix(1 0 0 1 1470.86 1842)">with</text><text font-family="Aptos,Aptos_MSFontService,sans-serif" font-weight="700" font-size="128" transform="matrix(1 0 0 1 1749.88 1842)">the </text><text font-family="Aptos,Aptos_MSFontService,sans-serif" font-weight="700" font-size="128" transform="matrix(1 0 0 1 750.732 1996)">interface of R and </text><text font-family="Aptos,Aptos_MSFontService,sans-serif" font-weight="700" font-size="128" transform="matrix(1 0 0 1 1802.01 1996)">its</text><text font-family="Aptos,Aptos_MSFontService,sans-serif" font-weight="700" font-size="128" transform="matrix(1 0 0 1 1084.28 2150)">language</text><path d="M2488 1789.67C2488 1744.01 2525.01 1707 2570.67 1707L4114.33 1707C4159.99 1707 4197 1744.01 4197 1789.67L4197 2120.33C4197 2165.99 4159.99 2203 4114.33 2203L2570.67 2203C2525.01 2203 2488 2165.99 2488 2120.33Z" stroke="#156082" stroke-width="13.75" stroke-miterlimit="8" fill="#FFFFFF" fill-rule="evenodd"/><text font-family="Aptos,Aptos_MSFontService,sans-serif" font-weight="700" font-size="128" transform="matrix(1 0 0 1 2678.97 1842)">Create</text><text font-family="Aptos,Aptos_MSFontService,sans-serif" font-weight="700" font-size="128" transform="matrix(1 0 0 1 3100.61 1842)">and </text><text font-family="Aptos,Aptos_MSFontService,sans-serif" font-weight="700" font-size="128" transform="matrix(1 0 0 1 3347.54 1842)">get</text><text font-family="Aptos,Aptos_MSFontService,sans-serif" font-weight="700" font-size="128" transform="matrix(1 0 0 1 3555.67 1842)">familiar</text><text font-family="Aptos,Aptos_MSFontService,sans-serif" font-weight="700" font-size="128" transform="matrix(1 0 0 1 2844.7 1996)">with</text><text font-family="Aptos,Aptos_MSFontService,sans-serif" font-weight="700" font-size="128" transform="matrix(1 0 0 1 3123.71 1996)">R </text><text font-family="Aptos,Aptos_MSFontService,sans-serif" font-weight="700" font-size="128" transform="matrix(1 0 0 1 3231.42 1996)">Markdown</text><text font-family="Aptos,Aptos_MSFontService,sans-serif" font-weight="700" font-size="128" transform="matrix(1 0 0 1 3010.07 2150)">documents</text><path d="M1323 2782.5C1323 2745.77 1352.77 2716 1389.5 2716L3303.5 2716C3340.23 2716 3370 2745.77 3370 2782.5L3370 3048.5C3370 3085.23 3340.23 3115 3303.5 3115L1389.5 3115C1352.77 3115 1323 3085.23 1323 3048.5Z" stroke="#156082" stroke-width="13.75" stroke-miterlimit="8" fill="#FFFFFF" fill-rule="evenodd"/><text font-family="Aptos,Aptos_MSFontService,sans-serif" font-weight="700" font-size="128" transform="matrix(1 0 0 1 1426.2 2879)">Understand</text><text font-family="Aptos,Aptos_MSFontService,sans-serif" font-weight="700" font-size="128" transform="matrix(1 0 0 1 2141 2879)">where</text><text font-family="Aptos,Aptos_MSFontService,sans-serif" font-weight="700" font-size="128" transform="matrix(1 0 0 1 2529.14 2879)">to </text><text font-family="Aptos,Aptos_MSFontService,sans-serif" font-weight="700" font-size="128" transform="matrix(1 0 0 1 2674.04 2879)">obtain</text><text font-family="Aptos,Aptos_MSFontService,sans-serif" font-weight="700" font-size="128" transform="matrix(1 0 0 1 3074.32 2879)">the </text><text font-family="Aptos,Aptos_MSFontService,sans-serif" font-weight="700" font-size="128" transform="matrix(1 0 0 1 2142.56 3033)">corpus</text><path d="M1323 3694.5C1323 3657.77 1352.77 3628 1389.5 3628L3303.5 3628C3340.23 3628 3370 3657.77 3370 3694.5L3370 3960.5C3370 3997.23 3340.23 4027 3303.5 4027L1389.5 4027C1352.77 4027 1323 3997.23 1323 3960.5Z" stroke="#156082" stroke-width="13.75" stroke-miterlimit="8" fill="#FFFFFF" fill-rule="evenodd"/><text font-family="Aptos,Aptos_MSFontService,sans-serif" font-weight="700" font-size="128" transform="matrix(1 0 0 1 1532.4 3791)">Create</text><text font-family="Aptos,Aptos_MSFontService,sans-serif" font-weight="700" font-size="128" transform="matrix(1 0 0 1 1954.04 3791)">the </text><text font-family="Aptos,Aptos_MSFontService,sans-serif" font-weight="700" font-size="128" transform="matrix(1 0 0 1 2172.32 3791)">raw</text><text font-family="Aptos,Aptos_MSFontService,sans-serif" font-weight="700" font-size="128" transform="matrix(1 0 0 1 2410.98 3791)">corpus: Data </text><text font-family="Aptos,Aptos_MSFontService,sans-serif" font-weight="700" font-size="128" transform="matrix(1 0 0 1 1902.11 3945)">scraping</text><text font-family="Aptos,Aptos_MSFontService,sans-serif" font-weight="700" font-size="128" transform="matrix(1 0 0 1 2429.95 3945)">with</text><text font-family="Aptos,Aptos_MSFontService,sans-serif" font-weight="700" font-size="128" transform="matrix(1 0 0 1 2708.96 3945)">R</text><path d="M2359.75 559 2359.75 796.3 2332.25 796.3 2332.25 559ZM2387.25 782.55 2346 865.05 2304.75 782.55Z"/><path d="M2359.75 3115 2359.75 3558.58 2332.25 3558.58 2332.25 3115ZM2387.25 3544.83 2346 3627.33 2304.75 3544.83Z"/><path d="M2359.75 4027 2359.75 4660.51 2332.25 4660.51 2332.25 4027ZM2387.25 4646.76 2346 4729.26 2304.75 4646.76Z"/><path d="M2359.75 5129 2359.75 5981.16 2332.25 5981.16 2332.25 5129ZM2387.25 5967.41 2346 6049.91 2304.75 5967.41Z"/><path d="M2360.34 1195.83 2359.57 1208.63 2357.16 1222.14 2353.25 1235.46 2347.92 1248.55 2341.26 1261.39 2333.34 1273.97 2324.23 1286.27 2313.98 1298.3 2302.66 1310.04 2290.31 1321.49 2276.98 1332.64 2262.72 1343.47 2247.56 1353.97 2231.56 1364.13 2214.75 1373.93 2197.18 1383.34 2178.9 1392.36 2159.94 1400.95 2140.35 1409.11 2120.18 1416.8 2099.46 1424.01 2078.24 1430.72 2056.57 1436.9 2034.49 1442.52 2012.04 1447.58 1989.26 1452.03 1966.21 1455.87 1942.92 1459.06 1919.44 1461.59 1895.82 1463.42 1872.09 1464.54 1848.53 1464.91 1825.18 1465.28 1825.6 1465.27 1802.3 1466.37 1802.72 1466.34 1779.5 1468.15 1779.91 1468.11 1756.83 1470.59 1757.23 1470.54 1734.33 1473.68 1734.72 1473.62 1712.06 1477.39 1712.44 1477.32 1690.05 1481.71 1690.43 1481.63 1668.35 1486.59 1668.73 1486.5 1647.02 1492.03 1647.4 1491.93 1626.1 1498 1626.47 1497.89 1605.63 1504.48 1606.01 1504.35 1585.67 1511.43 1586.05 1511.29 1566.26 1518.84 1566.64 1518.69 1547.44 1526.68 1547.84 1526.51 1529.27 1534.93 1529.68 1534.73 1511.8 1543.55 1512.22 1543.34 1495.07 1552.53 1495.5 1552.29 1479.13 1561.83 1479.57 1561.56 1464.02 1571.43 1464.49 1571.12 1449.8 1581.29 1450.29 1580.94 1436.52 1591.4 1437.02 1591 1424.21 1601.71 1424.74 1601.24 1412.93 1612.19 1413.48 1611.65 1402.72 1622.81 1403.29 1622.18 1393.63 1633.53 1395.53 1630.62 1386.6 1649 1361.87 1636.98 1371.56 1617.03 1382.63 1604.03 1393.95 1592.29 1406.3 1580.84 1419.63 1569.69 1433.9 1558.86 1449.05 1548.36 1465.06 1538.2 1481.86 1528.4 1499.43 1518.99 1517.72 1509.97 1536.67 1501.38 1556.26 1493.22 1576.44 1485.53 1597.16 1478.32 1618.37 1471.61 1640.04 1465.43 1662.13 1459.81 1684.58 1454.75 1707.35 1450.3 1730.4 1446.46 1753.69 1443.27 1777.17 1440.74 1800.8 1438.91 1824.52 1437.79 1848.09 1437.42 1871.44 1437.05 1871.01 1437.06 1894.32 1435.96 1893.9 1435.99 1917.11 1434.18 1916.71 1434.22 1939.78 1431.74 1939.39 1431.79 1962.28 1428.65 1961.89 1428.71 1984.56 1424.94 1984.17 1425.01 2006.57 1420.63 2006.19 1420.7 2028.26 1415.74 2027.88 1415.83 2049.59 1410.3 2049.22 1410.4 2070.52 1404.33 2070.14 1404.44 2090.98 1397.85 2090.61 1397.98 2110.95 1390.9 2110.57 1391.04 2130.36 1383.49 2129.97 1383.64 2149.17 1375.65 2148.78 1375.82 2167.34 1367.4 2166.94 1367.6 2184.81 1358.78 2184.4 1358.99 2201.54 1349.8 2201.12 1350.04 2217.49 1340.5 2217.04 1340.77 2232.59 1330.9 2232.13 1331.21 2246.81 1321.04 2246.33 1321.39 2260.1 1310.93 2259.59 1311.33 2272.4 1300.62 2271.88 1301.09 2283.68 1290.14 2283.13 1290.68 2293.89 1279.52 2293.32 1280.15 2302.99 1268.8 2302.4 1269.53 2310.93 1258.02 2310.34 1258.88 2317.68 1247.22 2317.11 1248.22 2323.22 1236.45 2322.69 1237.6 2327.51 1225.73 2327.06 1227.04 2330.56 1215.11 2330.22 1216.57 2332.36 1204.59 2332.17 1206.18 2332.89 1194.17ZM1417.68 1644.67 1350 1707.33 1340.48 1615.58Z"/><path d="M0.825925-13.7252 13.6293-12.9547 27.1381-10.5455 40.4583-6.63295 53.5504-1.30446 66.3912 5.35705 78.9675 13.2766 91.2719 22.3874 103.299 32.6302 115.041 43.951 126.49 56.3 137.638 69.63 148.47 83.8954 158.973 99.0519 169.131 115.056 178.927 131.863 188.342 149.431 197.358 167.716 205.954 186.674 214.11 206.263 221.804 226.438 229.014 247.155 235.719 268.372 241.896 290.044 247.523 312.127 252.576 334.578 257.032 357.351 260.868 380.404 264.061 403.692 266.586 427.17 268.42 450.795 269.538 474.523 269.913 498.088 270.284 521.439 270.271 521.01 271.369 544.315 271.343 543.898 273.145 567.112 273.108 566.706 275.59 589.782 275.541 589.385 278.68 612.279 278.621 611.89 282.393 634.556 282.323 634.173 286.705 656.565 286.625 656.187 291.593 678.26 291.503 677.884 297.034 699.592 296.933 699.218 303.003 720.516 302.891 720.141 309.477 740.983 309.352 740.607 316.431 760.946 316.293 760.566 323.84 780.358 323.687 779.973 331.68 799.172 331.509 798.778 339.925 817.339 339.734 816.936 348.548 834.812 348.335 834.398 357.525 851.544 357.285 851.115 366.826 867.486 366.556 867.041 376.425 882.59 376.118 882.127 386.292 896.809 385.942 896.326 396.398 910.096 395.995 909.59 406.709 922.402 406.244 921.874 417.192 933.683 416.653 933.133 427.812 943.892 427.184 943.322 438.531 952.987 435.623 951.086 453.999 960.012 441.984 984.748 422.033 975.058 409.03 963.984 397.288 952.663 385.838 940.314 374.691 926.984 363.859 912.718 353.356 897.562 343.198 881.558 333.402 864.751 323.987 847.183 314.971 828.898 306.375 809.939 298.219 790.351 290.526 770.176 283.315 749.458 276.61 728.242 270.433 706.57 264.807 684.487 259.754 662.036 255.298 639.263 251.461 616.21 248.269 592.922 245.743 569.444 243.91 545.818 242.791 522.09 242.417 498.526 242.045 475.175 242.059 475.604 240.96 452.299 240.986 452.716 239.184 429.502 239.222 429.908 236.74 406.831 236.789 407.229 233.65 384.334 233.709 384.724 229.937 362.058 230.006 362.441 225.625 340.048 225.704 340.427 220.736 318.354 220.826 318.73 215.295 297.021 215.396 297.396 209.326 276.098 209.438 276.472 202.852 255.631 202.977 256.007 195.898 235.668 196.037 236.048 188.489 216.256 188.643 216.641 180.649 197.442 180.82 197.835 172.405 179.275 172.595 179.678 163.781 161.802 163.994 162.216 154.804 145.07 155.044 145.499 145.503 129.128 145.773 129.573 135.904 114.024 136.211 114.487 126.036 99.8044 126.387 100.288 115.931 86.5178 116.334 87.0232 105.62 74.2112 106.085 74.7393 95.1369 62.931 95.6764 63.481 84.5168 52.722 85.1449 53.2912 73.7978 43.6271 74.5308 44.2095 63.0195 35.686 63.875 36.2708 52.223 28.9334 53.218 29.5034 41.4487 23.3978 42.5972 23.928 30.7341 19.0998 32.0424 19.5568 20.109 16.0516 21.57 16.3954 9.58965 14.2588 11.1778 14.4475-0.825925 13.7252ZM449.664 928.931 512.329 996.614 420.584 1006.14Z" transform="matrix(1.83697e-16 1 1 -1.83697e-16 2346 1195)"/><path d="M0.825924-13.7252 13.6293-12.9547 27.1382-10.5455 40.4584-6.63294 53.5505-1.30446 66.3912 5.35705 78.9677 13.2766 91.2721 22.3874 103.299 32.6302 115.041 43.9511 126.491 56.3 137.638 69.63 148.47 83.8954 158.973 99.052 169.131 115.056 178.927 131.863 188.343 149.431 197.359 167.716 205.955 186.674 214.11 206.263 221.804 226.438 229.015 247.156 235.72 268.372 241.897 290.044 247.523 312.127 252.576 334.578 257.032 357.351 260.869 380.404 264.061 403.692 266.587 427.171 268.421 450.796 269.539 474.524 269.914 498.089 270.285 521.439 270.271 521.01 271.37 544.315 271.344 543.899 273.146 567.112 273.108 566.706 275.59 589.783 275.542 589.386 278.68 612.28 278.621 611.89 282.393 634.557 282.324 634.173 286.706 656.566 286.626 656.187 291.594 678.26 291.504 677.885 297.035 699.593 296.934 699.219 303.004 720.516 302.892 720.142 309.478 740.983 309.353 740.607 316.432 760.947 316.293 760.567 323.841 780.359 323.687 779.973 331.681 799.172 331.51 798.779 339.925 817.339 339.735 816.937 348.549 834.813 348.336 834.398 357.525 851.544 357.286 851.116 366.827 867.486 366.556 867.041 376.426 882.591 376.119 882.128 386.293 896.81 385.942 896.326 396.398 910.097 395.995 909.591 406.709 922.403 406.244 921.875 417.193 933.683 416.653 933.133 427.813 943.892 427.185 943.323 438.532 952.987 435.624 951.087 454 960.013 441.985 984.749 422.034 975.059 409.031 963.984 397.289 952.663 385.839 940.314 374.692 926.984 363.86 912.719 353.357 897.562 343.199 881.559 333.403 864.751 323.987 847.183 314.972 828.898 306.376 809.94 298.22 790.352 290.526 770.177 283.316 749.459 276.611 728.242 270.434 706.57 264.807 684.487 259.755 662.037 255.298 639.263 251.462 616.21 248.269 592.923 245.744 569.444 243.91 545.819 242.792 522.091 242.417 498.526 242.046 475.175 242.059 475.604 240.961 452.299 240.987 452.716 239.185 429.502 239.223 429.909 236.741 406.832 236.789 407.229 233.65 384.335 233.709 384.724 229.937 362.058 230.007 362.441 225.625 340.049 225.705 340.427 220.737 318.354 220.827 318.73 215.296 297.022 215.397 297.396 209.326 276.098 209.439 276.473 202.853 255.631 202.978 256.007 195.899 235.668 196.037 236.048 188.489 216.256 188.643 216.641 180.65 197.442 180.821 197.835 172.405 179.275 172.595 179.678 163.781 161.802 163.994 162.216 154.805 145.07 155.044 145.499 145.503 129.128 145.774 129.573 135.904 114.024 136.211 114.487 126.037 99.8044 126.388 100.288 115.932 86.5179 116.335 87.0233 105.621 74.2113 106.086 74.7393 95.1371 62.931 95.6766 63.481 84.517 52.722 85.1451 53.2913 73.798 43.6271 74.531 44.2096 63.0197 35.686 63.8751 36.2708 52.2231 28.9334 53.2181 29.5034 41.4488 23.3978 42.5973 23.928 30.7342 19.0998 32.0425 19.5568 20.109 16.0516 21.57 16.3954 9.58968 14.2588 11.1779 14.4475-0.825924 13.7252ZM449.665 928.932 512.33 996.614 420.585 1006.14Z" transform="matrix(1.83697e-16 1 1 -1.83697e-16 1350 2203)"/><path d="M3356.34 2203.83 3355.57 2216.63 3353.16 2230.14 3349.25 2243.46 3343.92 2256.55 3337.26 2269.39 3329.34 2281.97 3320.23 2294.27 3309.98 2306.3 3298.66 2318.04 3286.31 2329.49 3272.98 2340.64 3258.72 2351.47 3243.56 2361.97 3227.56 2372.13 3210.75 2381.93 3193.18 2391.34 3174.9 2400.36 3155.94 2408.95 3136.35 2417.11 3116.18 2424.8 3095.46 2432.01 3074.24 2438.72 3052.57 2444.9 3030.49 2450.52 3008.04 2455.58 2985.26 2460.03 2962.21 2463.87 2938.92 2467.06 2915.44 2469.59 2891.82 2471.42 2868.09 2472.54 2844.53 2472.91 2821.17 2473.28 2821.6 2473.27 2798.3 2474.37 2798.72 2474.34 2775.5 2476.15 2775.91 2476.11 2752.83 2478.59 2753.23 2478.54 2730.33 2481.68 2730.72 2481.62 2708.06 2485.39 2708.44 2485.32 2686.05 2489.71 2686.43 2489.63 2664.35 2494.59 2664.73 2494.5 2643.02 2500.03 2643.4 2499.93 2622.1 2506 2622.47 2505.89 2601.63 2512.48 2602.01 2512.35 2581.67 2519.43 2582.05 2519.29 2562.26 2526.84 2562.64 2526.69 2543.44 2534.68 2543.83 2534.51 2525.27 2542.92 2525.68 2542.73 2507.8 2551.55 2508.22 2551.34 2491.07 2560.52 2491.5 2560.29 2475.13 2569.83 2475.57 2569.56 2460.02 2579.43 2460.49 2579.12 2445.8 2589.29 2446.29 2588.94 2432.52 2599.4 2433.02 2598.99 2420.21 2609.71 2420.74 2609.24 2408.93 2620.19 2409.48 2619.65 2398.72 2630.81 2399.29 2630.18 2389.63 2641.53 2391.53 2638.62 2382.6 2657 2357.87 2644.98 2367.56 2625.03 2378.63 2612.03 2389.95 2600.29 2402.3 2588.84 2415.63 2577.69 2429.9 2566.86 2445.05 2556.36 2461.06 2546.2 2477.86 2536.4 2495.43 2526.99 2513.72 2517.97 2532.67 2509.38 2552.26 2501.22 2572.44 2493.53 2593.16 2486.32 2614.37 2479.61 2636.04 2473.43 2658.13 2467.81 2680.58 2462.75 2703.35 2458.3 2726.4 2454.46 2749.69 2451.27 2773.17 2448.74 2796.8 2446.91 2820.52 2445.79 2844.09 2445.42 2867.44 2445.05 2867.01 2445.06 2890.31 2443.96 2889.9 2443.99 2913.11 2442.18 2912.71 2442.22 2935.78 2439.74 2935.39 2439.79 2958.28 2436.65 2957.89 2436.71 2980.56 2432.94 2980.17 2433.01 3002.56 2428.62 3002.19 2428.7 3024.26 2423.74 3023.88 2423.83 3045.59 2418.3 3045.22 2418.4 3066.52 2412.33 3066.14 2412.44 3086.98 2405.85 3086.61 2405.98 3106.95 2398.9 3106.57 2399.04 3126.36 2391.49 3125.97 2391.64 3145.17 2383.65 3144.78 2383.82 3163.34 2375.4 3162.94 2375.6 3180.81 2366.78 3180.4 2366.99 3197.54 2357.8 3197.11 2358.04 3213.49 2348.5 3213.04 2348.77 3228.59 2338.9 3228.13 2339.21 3242.81 2329.04 3242.33 2329.39 3256.1 2318.93 3255.59 2319.33 3268.4 2308.62 3267.87 2309.09 3279.68 2298.14 3279.13 2298.68 3289.89 2287.52 3289.32 2288.15 3298.99 2276.8 3298.4 2277.53 3306.93 2266.02 3306.34 2266.88 3313.68 2255.22 3313.11 2256.22 3319.22 2244.45 3318.69 2245.6 3323.51 2233.73 3323.06 2235.04 3326.56 2223.11 3326.22 2224.57 3328.35 2212.59 3328.17 2214.18 3328.89 2202.17ZM2413.68 2652.66 2346 2715.33 2336.48 2623.58Z"/><path d="M1323 4795.67C1323 4758.85 1352.85 4729 1389.67 4729L3303.33 4729C3340.15 4729 3370 4758.85 3370 4795.67L3370 5062.33C3370 5099.15 3340.15 5129 3303.33 5129L1389.67 5129C1352.85 5129 1323 5099.15 1323 5062.33Z" stroke="#156082" stroke-width="13.75" stroke-miterlimit="8" fill="#FFFFFF" fill-rule="evenodd"/><text font-family="Aptos,Aptos_MSFontService,sans-serif" font-weight="700" font-size="128" transform="matrix(1 0 0 1 1412.16 4970)">Prepare</text><text font-family="Aptos,Aptos_MSFontService,sans-serif" font-weight="700" font-size="128" transform="matrix(1 0 0 1 1896.71 4970)">the data: </text><text font-family="Aptos,Aptos_MSFontService,sans-serif" font-weight="700" font-size="128" transform="matrix(1 0 0 1 2441.69 4970)">Preprocessing</text><path d="M3929.5 4583C3929.5 4558.98 3948.98 4539.5 3973 4539.5L5356 4539.5C5380.02 4539.5 5399.5 4558.98 5399.5 4583L5399.5 4757C5399.5 4781.02 5380.02 4800.5 5356 4800.5L3973 4800.5C3948.98 4800.5 3929.5 4781.02 3929.5 4757Z" stroke="#156082" stroke-width="6.875" stroke-miterlimit="8" fill="#FFFFFF" fill-rule="evenodd"/><text font-family="Aptos,Aptos_MSFontService,sans-serif" font-weight="700" font-size="128" transform="matrix(1 0 0 1 4262.38 4711)">Data </text><text font-family="Aptos,Aptos_MSFontService,sans-serif" font-weight="700" font-size="128" transform="matrix(1 0 0 1 4565.72 4711)">cleaning</text><path d="M3929.5 5019.5C3929.5 4986.36 3956.36 4959.5 3989.5 4959.5L5339.5 4959.5C5372.64 4959.5 5399.5 4986.36 5399.5 5019.5L5399.5 5259.5C5399.5 5292.64 5372.64 5319.5 5339.5 5319.5L3989.5 5319.5C3956.36 5319.5 3929.5 5292.64 3929.5 5259.5Z" stroke="#156082" stroke-width="6.875" stroke-miterlimit="8" fill="#FFFFFF" fill-rule="evenodd"/><text font-family="Aptos,Aptos_MSFontService,sans-serif" font-weight="700" font-size="128" transform="matrix(1 0 0 1 4183.19 5103)">Preliminary data </text><text font-family="Aptos,Aptos_MSFontService,sans-serif" font-weight="700" font-size="128" transform="matrix(1 0 0 1 4225.81 5257)">transformation</text><path d="M2.88899-6.23854 531.125 238.381 525.347 250.858-2.88899 6.23854ZM530.664 223.015 559.429 259.065 513.331 260.446Z" transform="matrix(1 0 0 -1 3370 4929.06)"/><path d="M3372.42 4922.56 3899.66 5120.54 3894.83 5133.41 3367.58 4935.44ZM3898.06 5105.25 3929.43 5139.06 3883.56 5143.87Z"/><path d="M1323 6116.5C1323 6079.77 1352.77 6050 1389.5 6050L3303.5 6050C3340.23 6050 3370 6079.77 3370 6116.5L3370 6382.5C3370 6419.23 3340.23 6449 3303.5 6449L1389.5 6449C1352.77 6449 1323 6419.23 1323 6382.5Z" stroke="#156082" stroke-width="13.75" stroke-miterlimit="8" fill="#FFFFFF" fill-rule="evenodd"/><text font-family="Aptos,Aptos_MSFontService,sans-serif" font-weight="700" font-size="128" transform="matrix(1 0 0 1 1865.02 6290)">Analyze</text><text font-family="Aptos,Aptos_MSFontService,sans-serif" font-weight="700" font-size="128" transform="matrix(1 0 0 1 2347.19 6290)">the data</text><path d="M3929.5 5904C3929.5 5879.98 3948.98 5860.5 3973 5860.5L5356 5860.5C5380.02 5860.5 5399.5 5879.98 5399.5 5904L5399.5 6078C5399.5 6102.02 5380.02 6121.5 5356 6121.5L3973 6121.5C3948.98 6121.5 3929.5 6102.02 3929.5 6078Z" stroke="#156082" stroke-width="6.875" stroke-miterlimit="8" fill="#FFFFFF" fill-rule="evenodd"/><text font-family="Aptos,Aptos_MSFontService,sans-serif" font-weight="700" font-size="128" transform="matrix(1 0 0 1 4080.09 6031)">Summarize</text><text font-family="Aptos,Aptos_MSFontService,sans-serif" font-weight="700" font-size="128" transform="matrix(1 0 0 1 4767.93 6031)">the data</text><path d="M3929.5 6422C3929.5 6397.98 3948.98 6378.5 3973 6378.5L5356 6378.5C5380.02 6378.5 5399.5 6397.98 5399.5 6422L5399.5 6596C5399.5 6620.02 5380.02 6639.5 5356 6639.5L3973 6639.5C3948.98 6639.5 3929.5 6620.02 3929.5 6596Z" stroke="#156082" stroke-width="6.875" stroke-miterlimit="8" fill="#FFFFFF" fill-rule="evenodd"/><text font-family="Aptos,Aptos_MSFontService,sans-serif" font-weight="700" font-size="128" transform="matrix(1 0 0 1 4115.07 6549)">Transform</text><text font-family="Aptos,Aptos_MSFontService,sans-serif" font-weight="700" font-size="128" transform="matrix(1 0 0 1 4732.95 6549)">the data</text><path d="M2.88899-6.23854 531.125 238.381 525.347 250.858-2.88899 6.23854ZM530.664 223.015 559.429 259.065 513.331 260.446Z" transform="matrix(1 0 0 -1 3370 6249.06)"/><path d="M3372.89 6242.76 3901.13 6487.39 3895.35 6499.87 3367.11 6255.24ZM3900.67 6472.03 3929.43 6508.08 3883.33 6509.46Z"/><rect x="5856.5" y="5831.5" width="1779" height="837" stroke="#042433" stroke-width="6.875" stroke-miterlimit="8" fill="#156082"/><text fill="#FFFFFF" font-family="Aptos,Aptos_MSFontService,sans-serif" font-weight="700" font-size="147" transform="matrix(1 0 0 1 6097.32 6120)">Frequency patterns</text><text fill="#FFFFFF" font-family="Aptos,Aptos_MSFontService,sans-serif" font-weight="700" font-size="147" transform="matrix(1 0 0 1 6058.2 6296)">Collocation</text><text fill="#FFFFFF" font-family="Aptos,Aptos_MSFontService,sans-serif" font-weight="700" font-size="147" transform="matrix(1 0 0 1 6867.3 6296)">patterns</text><text fill="#FFFFFF" font-family="Aptos,Aptos_MSFontService,sans-serif" font-weight="700" font-size="147" transform="matrix(1 0 0 1 5964.36 6472)">Collostruction patterns</text><path d="M5402.39 5984.02 5828.89 6226.12 5822.1 6238.07 5395.61 5995.98ZM5829.7 6210.77 5855.39 6249.06 5809.34 6246.64Z"/><path d="M3.39396-5.97885 429.893 236.127 423.105 248.085-3.39396 5.97885ZM430.702 220.776 456.393 259.076 410.338 256.649Z" transform="matrix(1 0 0 -1 5399 6508.08)"/><text font-family="Rage Italic,Rage Italic_MSFontService,sans-serif" font-style="italic" font-weight="400" font-size="367" transform="matrix(0.985683 0.168606 -0.168606 0.985683 6168.37 1079)">Chapter</text><text font-family="Rage Italic,Rage Italic_MSFontService,sans-serif" font-style="italic" font-weight="400" font-size="367" transform="matrix(0.985683 0.168606 -0.168606 0.985683 7277.47 1269)">1</text><text font-family="Rage Italic,Rage Italic_MSFontService,sans-serif" font-style="italic" font-weight="400" font-size="367" transform="matrix(0.985683 0.168606 -0.168606 0.985683 6168.37 2815)">Chapter</text><text font-family="Rage Italic,Rage Italic_MSFontService,sans-serif" font-style="italic" font-weight="400" font-size="367" transform="matrix(0.985683 0.168606 -0.168606 0.985683 7277.47 3005)">2</text><text font-family="Rage Italic,Rage Italic_MSFontService,sans-serif" font-style="italic" font-weight="400" font-size="367" transform="matrix(0.985683 0.168606 -0.168606 0.985683 6168.37 4761)">Chapter</text><text font-family="Rage Italic,Rage Italic_MSFontService,sans-serif" font-style="italic" font-weight="400" font-size="367" transform="matrix(0.985683 0.168606 -0.168606 0.985683 7277.47 4950)">3</text></g></svg>